<?xml version="1.0" encoding="UTF-8"?>
<svg viewBox="0 0 150 156.74" xmlns="http://www.w3.org/2000/svg">
<defs>
<style>.b93cb88a-d619-4d7b-8e3f-141668fdebce{fill:#f3ea00;}</style>
</defs>
<title>Recurso 10</title>
<g data-name="Capa 2">
<g data-name="Capa 1">
<circle cx="42.28" cy="95.2" r="11.93"/>
<circle class="b93cb88a-d619-4d7b-8e3f-141668fdebce" cx="42.28" cy="95.2" r="6.94"/>
<circle cx="105.76" cy="95.2" r="11.93"/>
<circle class="b93cb88a-d619-4d7b-8e3f-141668fdebce" cx="105.76" cy="95.2" r="6.94"/>
<path d="M40,57.85a4.16,4.16,0,0,1-4.61,3.5c-9.88-1.4-16-1.19-25.35,2.83,6.68-22.05,28.13-45.6,52.47-50.39a.86.86,0,0,1,.61,1.54C57.41,20,44.66,34.43,40,57.85ZM67,57a4.18,4.18,0,0,1-3.41,4.24,54.51,54.51,0,0,0-13.77,5C52.71,40.14,61,27.45,70,15.62a.75.75,0,0,1,1.32.61C69.8,23.39,66.49,41.12,67,57Zm13.86,5.07c-1.81-.49-3.63-1.3-3.63-3.7,0-8.93.13-28.45-1.41-42a.74.74,0,0,1,1.39-.45c5.66,10.31,13.46,34,14.26,49.88A102.61,102.61,0,0,0,80.88,62.07Zm24.6,1.6a26.94,26.94,0,0,0-2.68,1A3.44,3.44,0,0,1,98,62c-2.24-17.29-6.43-33-17.7-47a.74.74,0,0,1,.87-1.15c4.19,1.79,12.91,6.93,21.08,20.85,7.32,12.44,10,27.69,10,27.69A42.56,42.56,0,0,0,105.48,63.67Zm24.58-2.26a32.06,32.06,0,0,0-5.28-.47,5.64,5.64,0,0,1-5.44-4.5c-3.28-16-13.8-30.69-24.28-38.66a.74.74,0,0,1,.72-1.28c11.1,4.18,37.07,17.17,44.85,49.3A25,25,0,0,0,130.06,61.41Z"/>
<path d="M136.52,40C122.18,21,103.12,9.85,79.31,7.12,79.05,4,79.39.28,75.14,0c-5.09-.33-4.22,4.16-4.91,7.12C26,11.79.29,50.85,0,75.34a1.69,1.69,0,0,0,.64,0c.62-.28,1.21-.62,1.8-.95,15.3-8.56,30.82-9.09,46.64-1.38a5.25,5.25,0,0,0,4-.09c5.45-2.53,11-4.53,17.46-5,.08,1.29.19,2.18.19,3.06,0,13.52,0,45.14,0,66a22.47,22.47,0,0,0-2.93-1.7c-7.12-3.48-14.08-2.63-20.4,2.1a18.87,18.87,0,0,0-7.66,14.49,7.49,7.49,0,0,0,.08,1.6,3.64,3.64,0,0,0,3.76,3.29,4,4,0,0,0,4.25-3.29,6.81,6.81,0,0,0,.15-.85c.86-7.12,5.66-11.53,12-11.14s10.59,5.16,10.78,12h0A3.29,3.29,0,0,0,74,156.74h1.2a3.7,3.7,0,0,0,3.71-3.69C79,131.18,79,91.63,79,72V67.67c6.31,2.17,11.77,3.37,17.3,5.1a6.92,6.92,0,0,0,4.56,0c15.38-7.3,30.5-7,45.46,1.13,1,.56,2.1,1.1,3.65,1.92A66.17,66.17,0,0,0,136.52,40Z"/>
<path d="M95.78,16.5a.74.74,0,0,0-.72,1.28c10.48,8,21,22.63,24.28,38.66a5.64,5.64,0,0,0,5.44,4.5,32.06,32.06,0,0,1,5.28.47,25,25,0,0,1,10.57,4.39C132.85,33.67,106.88,20.68,95.78,16.5Zm-14.6-2.69A.74.74,0,0,0,80.31,15C91.58,29,95.77,44.71,98,62a3.44,3.44,0,0,0,4.79,2.7,26.94,26.94,0,0,1,2.68-1,42.56,42.56,0,0,1,6.79-1.32s-2.69-15.25-10-27.69C94.09,20.74,85.37,15.6,81.18,13.81Zm-5.34,2.56c1.54,13.55,1.42,33.07,1.41,42,0,2.4,1.82,3.21,3.63,3.7A102.61,102.61,0,0,1,91.49,65.8c-.8-15.91-8.6-39.57-14.26-49.88A.74.74,0,0,0,75.84,16.37ZM70,15.62C61,27.45,52.71,40.14,49.84,66.24a54.51,54.51,0,0,1,13.77-5A4.18,4.18,0,0,0,67,57c-.53-15.88,2.78-33.61,4.3-40.77A.75.75,0,0,0,70,15.62Zm-6.93-.29a.86.86,0,0,0-.61-1.54C38.12,18.58,16.67,42.13,10,64.18c9.37-4,15.47-4.23,25.35-2.83A4.16,4.16,0,0,0,40,57.85C44.66,34.43,57.41,20,63.07,15.33Z"/>
<path class="b93cb88a-d619-4d7b-8e3f-141668fdebce" d="M63.07,15.33C57.41,20,44.66,34.43,40,57.85a4.16,4.16,0,0,1-4.61,3.5c-9.88-1.4-16-1.19-25.35,2.83,6.68-22.05,28.13-45.6,52.47-50.39A.86.86,0,0,1,63.07,15.33Z"/>
<path class="b93cb88a-d619-4d7b-8e3f-141668fdebce" d="M71.32,16.23C69.8,23.39,66.49,41.12,67,57a4.18,4.18,0,0,1-3.41,4.24,54.51,54.51,0,0,0-13.77,5C52.71,40.14,61,27.45,70,15.62A.75.75,0,0,1,71.32,16.23Z"/>
<path class="b93cb88a-d619-4d7b-8e3f-141668fdebce" d="M91.49,65.8a102.61,102.61,0,0,0-10.61-3.73c-1.81-.49-3.63-1.3-3.63-3.7,0-8.93.13-28.45-1.41-42a.74.74,0,0,1,1.39-.45C82.89,26.23,90.69,49.89,91.49,65.8Z"/>
<path class="b93cb88a-d619-4d7b-8e3f-141668fdebce" d="M112.27,62.35a42.56,42.56,0,0,0-6.79,1.32,26.94,26.94,0,0,0-2.68,1A3.44,3.44,0,0,1,98,62c-2.24-17.29-6.43-33-17.7-47a.74.74,0,0,1,.87-1.15c4.19,1.79,12.91,6.93,21.08,20.85C109.58,47.1,112.27,62.35,112.27,62.35Z"/>
<path class="b93cb88a-d619-4d7b-8e3f-141668fdebce" d="m140.63 65.8a25 25 0 0 0-10.57-4.39 32.06 32.06 0 0 0-5.28-0.47 5.64 5.64 0 0 1-5.44-4.5c-3.28-16-13.8-30.69-24.28-38.66a0.74 0.74 0 0 1 0.72-1.28c11.1 4.18 37.07 17.17 44.85 49.3z"/>
</g>
</g>
</svg>
