<?xml version="1.0" encoding="UTF-8"?>
<svg viewBox="0 0 30.62 32" xmlns="http://www.w3.org/2000/svg">
<defs>
<style>.a665b179-7d2a-4a56-a4ea-b36559c99097{fill:#fb0903;}.b57a9471-3b9a-4a01-8f51-c0709b90e7dc{fill:#f7941e;}.bd51d860-e99d-4feb-963c-f05a5f65c2f5{fill:#f3ea00;}.f9e66c6b-fd08-4a3a-b8b1-b89c1713acf4{fill:#00c3ad;}.ed2dfca0-e9d6-41cb-ba5c-4e6dd061770c{fill:#486ef4;}</style>
</defs>
<title>Recurso 2</title>
<g data-name="Capa 2">
<g data-name="Capa 1">
<path d="M27.87,8.17A16.4,16.4,0,0,0,16.19,1.46c-.05-.65,0-1.4-.85-1.46-1-.06-.86.86-1,1.46C5.3,2.41.06,10.38,0,15.38H.13c.13-.06.25-.13.37-.2A9.73,9.73,0,0,1,10,14.9a1,1,0,0,0,.8,0,10.09,10.09,0,0,1,3.57-1c0,.26,0,.44,0,.62,0,4.29,0,9,0,13.27a2.36,2.36,0,0,1-2.2,2.54A2.33,2.33,0,0,1,9.79,28a.83.83,0,0,0-.89-.85c-.52,0-.83.4-.79,1a3.84,3.84,0,0,0,1.57,3,3.79,3.79,0,0,0,4.16.43,3.86,3.86,0,0,0,2.27-3.67c0-4.26,0-8.94,0-13.2v-.88c1.29.44,2.41.68,3.54,1a1.41,1.41,0,0,0,.93,0,9.73,9.73,0,0,1,9.28.23l.74.39A13.56,13.56,0,0,0,27.87,8.17Z"/>
<path class="a665b179-7d2a-4a56-a4ea-b36559c99097" d="M7.21,12.52A8.38,8.38,0,0,0,2,13.1C3.4,8.6,7.78,3.79,12.75,2.82c.17,0,.26.2.13.31a15.75,15.75,0,0,0-4.73,8.68A.83.83,0,0,1,7.21,12.52Z"/>
<path class="b57a9471-3b9a-4a01-8f51-c0709b90e7dc" d="M13,12.5a11.27,11.27,0,0,0-2.81,1A18.39,18.39,0,0,1,14.29,3.19a.15.15,0,0,1,.27.12,38,38,0,0,0-.88,8.33A.84.84,0,0,1,13,12.5Z"/>
<path class="bd51d860-e99d-4feb-963c-f05a5f65c2f5" d="M16.51,12.67c-.37-.1-.74-.26-.74-.75a84.75,84.75,0,0,0-.29-8.58.16.16,0,0,1,.29-.09,30,30,0,0,1,2.91,10.18A21.33,21.33,0,0,0,16.51,12.67Z"/>
<path class="f9e66c6b-fd08-4a3a-b8b1-b89c1713acf4" d="M20,12.66c-.46-3.53-1.32-6.73-3.62-9.61a.15.15,0,0,1,.18-.23,9.68,9.68,0,0,1,4.31,4.25,19.65,19.65,0,0,1,2,5.66,8.46,8.46,0,0,0-1.39.27,4.69,4.69,0,0,0-.54.21A.7.7,0,0,1,20,12.66Z"/>
<path class="ed2dfca0-e9d6-41cb-ba5c-4e6dd061770c" d="M24.36,11.52a14,14,0,0,0-4.95-7.89.15.15,0,0,1,.14-.26,14.47,14.47,0,0,1,9.16,10.06,5.23,5.23,0,0,0-2.16-.89,6.28,6.28,0,0,0-1.08-.1A1.15,1.15,0,0,1,24.36,11.52Z"/>
<circle cx="8.63" cy="19.43" r="2.43"/>
<circle class="ed2dfca0-e9d6-41cb-ba5c-4e6dd061770c" cx="8.63" cy="19.43" r="1.42"/>
<circle cx="21.59" cy="19.43" r="2.43"/>
<circle class="ed2dfca0-e9d6-41cb-ba5c-4e6dd061770c" cx="21.59" cy="19.43" r="1.42"/>
</g>
</g>
</svg>
