<?xml version="1.0" encoding="UTF-8"?>
<svg viewBox="0 0 136.34 67.71" xmlns="http://www.w3.org/2000/svg">
<defs>
<style>.ab322cd3-788c-48f8-87e9-f5e55a47a8ae{fill:#fb0903;}.f91a04a2-1e06-4b99-a36d-23213fbc0de4{fill:#f7941e;}.e9101825-4a1b-45be-bf5f-80a250977c24{fill:#f3ea00;}.b3a86ea7-b07d-43d4-9ee7-03f9564ff907{fill:#00c3ad;}.b0c50bf5-7a48-4122-803f-02d8a88c9bc9{fill:#486ef4;}</style>
</defs>
<title>Recurso 5</title>
<g data-name="Capa 2">
<g data-name="Capa 1">
<path d="M59,17.29A34.74,34.74,0,0,0,34.26,3.08c-.11-1.38,0-3-1.8-3.07-2.2-.14-1.83,1.8-2.12,3.08C11.22,5.09.13,22,0,32.54a.88.88,0,0,0,.28,0l.77-.41a20.58,20.58,0,0,1,20.15-.6,2.28,2.28,0,0,0,1.7,0,21.27,21.27,0,0,1,7.55-2.15c0,.56.08.94.08,1.32,0,9.07,0,19,0,28.09,0,3-1.91,5.2-4.66,5.37s-4.8-1.74-5.17-4.82a1.78,1.78,0,0,0-1.91-1.79c-1.09,0-1.73.85-1.65,2.12a8.11,8.11,0,0,0,3.3,6.25,8,8,0,0,0,8.82.91A8.14,8.14,0,0,0,34.09,59c0-9,0-18.92,0-27.94V29.23c2.72.94,5.08,1.46,7.47,2.21a3,3,0,0,0,2,0,20.59,20.59,0,0,1,19.64.49c.45.25.91.48,1.58.83A28.72,28.72,0,0,0,59,17.29Z"/>
<path class="ab322cd3-788c-48f8-87e9-f5e55a47a8ae" d="M15.26,26.5C11,25.9,8.36,26,4.31,27.73,7.2,18.2,16.47,8,27,6a.37.37,0,0,1,.27.66c-2.45,2-8,8.26-10,18.37A1.8,1.8,0,0,1,15.26,26.5Z"/>
<path class="f91a04a2-1e06-4b99-a36d-23213fbc0de4" d="M27.48,26.46a23.29,23.29,0,0,0-5.95,2.16c1.24-11.28,4.8-16.76,8.71-21.87a.32.32,0,0,1,.57.26A80,80,0,0,0,29,24.62,1.82,1.82,0,0,1,27.48,26.46Z"/>
<path class="e9101825-4a1b-45be-bf5f-80a250977c24" d="M34.94,26.82c-.79-.22-1.57-.57-1.57-1.61,0-3.85.05-12.28-.61-18.14a.32.32,0,0,1,.6-.19c2.45,4.45,5.81,14.67,6.16,21.54A44.51,44.51,0,0,0,34.94,26.82Z"/>
<path class="b3a86ea7-b07d-43d4-9ee7-03f9564ff907" d="M42.34,26.79c-1-7.48-2.78-14.25-7.65-20.33A.32.32,0,0,1,35.07,6c1.81.77,5.57,3,9.1,9a41.4,41.4,0,0,1,4.33,12,18.57,18.57,0,0,0-2.94.58,8.92,8.92,0,0,0-1.15.44A1.48,1.48,0,0,1,42.34,26.79Z"/>
<path class="b0c50bf5-7a48-4122-803f-02d8a88c9bc9" d="M51.55,24.38A29.68,29.68,0,0,0,41.06,7.68a.32.32,0,0,1,.31-.55c4.8,1.8,16,7.41,19.38,21.29a10.86,10.86,0,0,0-4.57-1.89,14.19,14.19,0,0,0-2.28-.21A2.43,2.43,0,0,1,51.55,24.38Z"/>
<circle cx="18.26" cy="41.12" r="5.15"/>
<circle class="b0c50bf5-7a48-4122-803f-02d8a88c9bc9" cx="18.26" cy="41.12" r="3"/>
<circle cx="45.68" cy="41.12" r="5.15"/>
<circle class="b0c50bf5-7a48-4122-803f-02d8a88c9bc9" cx="45.68" cy="41.12" r="3"/>
<path d="M46.09,55.45a4.35,4.35,0,0,1,2.29-.6,4.15,4.15,0,0,1,2.11.52,3.57,3.57,0,0,1,1.42,1.57L52,57h3.8l-.06-.2A7.06,7.06,0,0,0,53,53.14a7.88,7.88,0,0,0-4.55-1.33,8.07,8.07,0,0,0-4,1,7.35,7.35,0,0,0-2.82,2.82,8.56,8.56,0,0,0,0,8.18,7.32,7.32,0,0,0,2.82,2.81A8.44,8.44,0,0,0,53,66.32a7,7,0,0,0,2.73-3.7l.06-.2H52l0,.09a3.59,3.59,0,0,1-1.42,1.58,4.06,4.06,0,0,1-2.11.54,4.35,4.35,0,0,1-2.29-.6,4.1,4.1,0,0,1-1.56-1.71,6.27,6.27,0,0,1,0-5.18A4.05,4.05,0,0,1,46.09,55.45Z"/>
<rect x="58.02" y="51.09" width="3.35" height="16.43"/>
<rect x="64.08" y="55.14" width="3.35" height="12.37"/>
<path d="M65.78,50.13a2,2,0,0,0-1.45.55,1.93,1.93,0,0,0,0,2.76,2,2,0,0,0,1.45.56,2,2,0,0,0,1.44-.56,1.93,1.93,0,0,0,0-2.76A2,2,0,0,0,65.78,50.13Z"/>
<rect x="69.94" y="58.15" width="9.63" height="2.87"/>
<polygon points="90.43 63.09 85.69 52 81.98 52 81.98 67.52 85.32 67.52 85.32 58.21 89.18 67.52 91.68 67.52 95.52 58.21 95.52 67.52 98.86 67.52 98.86 52 95.17 52"/>
<path d="M110.3,56.6A5,5,0,0,0,106.46,55a5.37,5.37,0,0,0-4.92,3,7.11,7.11,0,0,0-.75,3.31,7.19,7.19,0,0,0,.75,3.35,5.56,5.56,0,0,0,2,2.27,5.23,5.23,0,0,0,2.85.81,5.13,5.13,0,0,0,2.46-.57A4.79,4.79,0,0,0,110.3,66v1.49h3.37V55.14H110.3Zm-5.67,2.87a3.07,3.07,0,0,1,1.11-1.15,2.91,2.91,0,0,1,1.5-.4,3,3,0,0,1,1.52.41,2.91,2.91,0,0,1,1.12,1.16,4.24,4.24,0,0,1,0,3.68,2.91,2.91,0,0,1-1.12,1.16,3,3,0,0,1-3,0,3.12,3.12,0,0,1-1.13-1.2,3.85,3.85,0,0,1-.43-1.84A3.73,3.73,0,0,1,104.63,59.47Z"/>
<path d="M120.21,52.15h-3.37v3H115.4v2.8h1.44v5.68c0,2.58,1.35,3.9,4,3.9h2.06V64.65h-1.56a1.32,1.32,0,0,1-.89-.23,1,1,0,0,1-.25-.78v-5.7h2.7v-2.8h-2.7Z"/>
<path d="M135.57,57.87a5.4,5.4,0,0,0-2.17-2.17,7.05,7.05,0,0,0-6.39,0A5.5,5.5,0,0,0,124.82,58a7,7,0,0,0-.78,3.36,6.84,6.84,0,0,0,.79,3.34A5.69,5.69,0,0,0,127,66.92a6.58,6.58,0,0,0,3.21.79A6.07,6.07,0,0,0,134,66.56,5.72,5.72,0,0,0,136,63.62l.06-.19h-3.58l0,.08a2.34,2.34,0,0,1-2.29,1.38,2.74,2.74,0,0,1-1.89-.7,2.83,2.83,0,0,1-.85-1.8h8.79l0-.12a8.72,8.72,0,0,0,.08-1.2A6.42,6.42,0,0,0,135.57,57.87Zm-7.22.53a2.63,2.63,0,0,1,1.81-.65,2.85,2.85,0,0,1,1.93.67,2.21,2.21,0,0,1,.79,1.63h-5.41A2.83,2.83,0,0,1,128.35,58.4Z"/>
</g>
</g>
</svg>
