<?xml version="1.0" encoding="UTF-8"?>
<svg viewBox="0 0 34.84 36.4" xmlns="http://www.w3.org/2000/svg">
<defs>
<style>.ad6a9ab5-a074-4b1e-82a0-07082f74757d{fill:#fb0903;}.b437d9c0-3f91-4077-a243-3588fd1863ad{fill:#f7941e;}.f4e5d6f5-9d3c-42de-a98b-d7947161f120{fill:#f3ea00;}.e040b0d7-f31d-4cc4-90ca-e07314d80853{fill:#00c3ad;}.f72db830-9567-4eb5-90c0-6417095245cb{fill:#486ef4;}</style>
</defs>
<title>Recurso 7</title>
<g data-name="Capa 2">
<g data-name="Capa 1">
<path d="M31.71,9.3A18.66,18.66,0,0,0,18.42,1.66c-.06-.74,0-1.59-1-1.66-1.18-.07-1,1-1.14,1.66C6,2.74.07,11.81,0,17.5a.37.37,0,0,0,.15,0,3.23,3.23,0,0,0,.41-.22A11.07,11.07,0,0,1,11.4,17a1.2,1.2,0,0,0,.91,0,11.21,11.21,0,0,1,4.06-1.15c0,.29,0,.5.05.71,0,4.87,0,10.22,0,15.09a2.69,2.69,0,0,1-2.5,2.89,2.65,2.65,0,0,1-2.79-2.59,1,1,0,0,0-1-1c-.59,0-.93.46-.89,1.14A4.38,4.38,0,0,0,11,35.42a4.3,4.3,0,0,0,4.74.49,4.37,4.37,0,0,0,2.58-4.17c0-4.85,0-10.17,0-15v-1c1.47.5,2.74.78,4,1.18a1.67,1.67,0,0,0,1.06,0A11,11,0,0,1,34,17.17l.85.44A15.39,15.39,0,0,0,31.71,9.3Z"/>
<path class="ad6a9ab5-a074-4b1e-82a0-07082f74757d" d="M8.21,14.25a9.49,9.49,0,0,0-5.89.66C3.87,9.78,8.85,4.32,14.51,3.2a.2.2,0,0,1,.14.36,17.84,17.84,0,0,0-5.37,9.88A1,1,0,0,1,8.21,14.25Z"/>
<path class="b437d9c0-3f91-4077-a243-3588fd1863ad" d="M14.77,14.22a12.77,12.77,0,0,0-3.19,1.16A20.84,20.84,0,0,1,16.26,3.63a.17.17,0,0,1,.3.14,43.48,43.48,0,0,0-1,9.47A1,1,0,0,1,14.77,14.22Z"/>
<path class="f4e5d6f5-9d3c-42de-a98b-d7947161f120" d="M18.78,14.42c-.42-.12-.84-.31-.84-.86a97.61,97.61,0,0,0-.33-9.76.18.18,0,0,1,.33-.1,33.87,33.87,0,0,1,3.31,11.58A22.71,22.71,0,0,0,18.78,14.42Z"/>
<path class="e040b0d7-f31d-4cc4-90ca-e07314d80853" d="M22.76,14.4c-.52-4-1.49-7.66-4.11-10.93a.17.17,0,0,1,.2-.26c1,.41,3,1.61,4.9,4.84a22.05,22.05,0,0,1,2.32,6.43,10.2,10.2,0,0,0-1.57.31,4,4,0,0,0-.62.24A.81.81,0,0,1,22.76,14.4Z"/>
<path class="f72db830-9567-4eb5-90c0-6417095245cb" d="M27.72,13.11a16,16,0,0,0-5.64-9,.17.17,0,0,1,.16-.3A16.49,16.49,0,0,1,32.66,15.28a5.83,5.83,0,0,0-2.45-1A8.45,8.45,0,0,0,29,14.15,1.29,1.29,0,0,1,27.72,13.11Z"/>
<circle cx="9.82" cy="22.11" r="2.77"/>
<circle class="f72db830-9567-4eb5-90c0-6417095245cb" cx="9.82" cy="22.11" r="1.61"/>
<circle cx="24.56" cy="22.11" r="2.77"/>
<circle class="f72db830-9567-4eb5-90c0-6417095245cb" cx="24.56" cy="22.11" r="1.61"/>
</g>
</g>
</svg>
