<?xml version="1.0" encoding="UTF-8"?>
<svg viewBox="0 0 92.01 47.59" xmlns="http://www.w3.org/2000/svg">
<title>Recurso 3</title>
<g data-name="Capa 2">
<g data-name="Capa 1">
<path d="M52.07,2.61H43.38l2,5.92H51.9c5.86,0,9.4,2.81,9.4,14.42,0,8.43-2.7,15.78-9.4,15.78L39.5,2.61H34.1L23.25,34.19H40.91L39,28.4l-8.25,0,6-18.31L47.8,45h4.27c10.49,0,14.34-11,14.34-21C66.41,15.25,64.34,2.61,52.07,2.61Z"/>
<path d="M12.84,47.59H0V0H12.84V3.65H4.18V44h8.66Z"/>
<path d="M24.78,47.26c-3.39,0-5.89-.59-7.42-1.75s-2.22-3.32-2.22-6.58V33.28c0-3.08-.48-5.12-1.46-6.24a6.91,6.91,0,0,0-4.4-1.95V22.65c2.2-.34,3.69-1,4.53-2.09s1.33-3.11,1.33-6V8.66c0-3.18.78-5.36,2.32-6.49S21.51.39,24.73.39h2V2.62H25.21a6.6,6.6,0,0,0-4.33,1.29c-1.08.89-1.61,2.54-1.61,5v5.65A22,22,0,0,1,19,18.73a4.71,4.71,0,0,1-1,2.31,44.39,44.39,0,0,1-3.82,2.78s3.12,1.76,3.92,3,1.24,3.39,1.24,6.45v5.6c0,2.37.53,4,1.63,4.88A6.53,6.53,0,0,0,25.21,45h1.56v2.23Z"/>
<path d="M79.17,44h8.66V3.65H79.17V0H92V47.59H79.17Z"/>
<path d="M67.22,47.26c3.4,0,5.89-.59,7.42-1.75s2.23-3.32,2.23-6.58V33.28c0-3.08.47-5.12,1.45-6.24a6.91,6.91,0,0,1,4.41-1.95V22.65c-2.21-.34-3.69-1-4.53-2.09s-1.33-3.11-1.33-6V8.66c0-3.18-.78-5.36-2.32-6.49S70.5.39,67.28.39h-2V2.62H66.8a6.6,6.6,0,0,1,4.33,1.29c1.08.89,1.61,2.54,1.61,5v5.65a23,23,0,0,0,.3,4.15,4.8,4.8,0,0,0,1,2.31,42.88,42.88,0,0,0,3.82,2.78s-3.12,1.76-3.93,3-1.23,3.39-1.23,6.45v5.6c0,2.37-.54,4-1.64,4.88A6.5,6.5,0,0,1,66.8,45H65.24v2.23Z"/>
</g>
</g>
</svg>
